<?xml version="1.0" encoding="utf-8"?>
<!-- Generator: Adobe Illustrator 21.0.0, SVG Export Plug-In . SVG Version: 6.00 Build 0)  -->
<svg version="1.1" id="Layer_1" xmlns="http://www.w3.org/2000/svg" xmlns:xlink="http://www.w3.org/1999/xlink" x="0px" y="0px"
	 viewBox="0 0 1366 768" style="enable-background:new 0 0 1366 768;" xml:space="preserve">
<style type="text/css">
	.st0{fill:#DAD0DD;stroke:#000000;stroke-miterlimit:10;}
	.st1{stroke:#000000;stroke-miterlimit:10;}
	.st2{fill:#8C4C9B;stroke:#000000;stroke-miterlimit:10;}
	.st3{fill:#9D46B2;}
	.st4{font-family:'MinionPro-Regular';}
	.st5{font-size:60px;}
	.st6{letter-spacing:8;}
</style>
<rect x="-0.5" y="-0.5" class="st0" width="1366" height="768"/>
<g>
	<path class="st1" d="M777.5,24.4c0,0,204.5-18.5,221.3,187.1c16.9,205.6-508,285.7-320.4,470.7c0,0-427.9-28.8-349.9-450.2
		c0,0,92.6,188.5,204.5,152.1C640.5,349.2,1036.8,108.7,777.5,24.4z"/>
	<path class="st1" d="M765.9,711c0,0-97-59.6-21.1-158.3s314.1-115.1,293-269.3C1037.9,283.4,1149.6,597.9,765.9,711z"/>
	<path class="st2" d="M768.1,712c0,0-101.2-69.9-50.6-145.9S1042.1,379,1040,284.4c0,0,14.8,104.8-153.9,265.2
		C809.9,622,772.3,576.3,768.1,712z"/>
	<path class="st2" d="M331.6,234.1c0,0,97,158.3,202.4,100.7S928.1,178.6,780.6,26.5c0,0,236,77.6,52.7,224.1
		c-175,139.8-181.3,148-339.4,178.8C493.9,429.4,386.4,419.1,331.6,234.1z"/>
	<text transform="matrix(0.896 -0.444 0.444 0.896 548.2614 312.0297)" class="st3 st4 st5 st6">TEDDY</text>
</g>
</svg>
